<svg xmlns="http://www.w3.org/2000/svg" viewBox="0 0 520 420" role="img" aria-label="中野自動車のイメージイラスト">
  <defs>
    <linearGradient id="hbBlob" x1="0" y1="0" x2="1" y2="1">
      <stop offset="0" stop-color="#dbeafb"/>
      <stop offset="1" stop-color="#c3def8"/>
    </linearGradient>
    <linearGradient id="hbBody" x1="0" y1="0" x2="0" y2="1">
      <stop offset="0" stop-color="#2e93ef"/>
      <stop offset="1" stop-color="#1577d6"/>
    </linearGradient>
  </defs>
  <!-- 背景ブロブ -->
  <path d="M250,30 C360,20 470,70 490,170 C508,262 470,350 370,386 C268,422 120,408 56,330 C-6,254 18,120 110,66 C160,36 200,34 250,30 Z" fill="url(#hbBlob)"/>
  <circle cx="120" cy="110" r="14" fill="#fff" opacity="0.5"/>
  <circle cx="430" cy="300" r="20" fill="#fff" opacity="0.4"/>

  <!-- 車 -->
  <g transform="translate(70,150) scale(1.55)">
    <ellipse cx="120" cy="126" rx="96" ry="10" fill="#0f63b8" opacity="0.14"/>
    <path d="M34,112 Q24,112 24,100 L24,92 Q24,85 33,83 L62,79 L82,54 Q87,48 96,48 L150,48 Q160,48 166,55 L185,80 L210,84 Q220,86 220,96 L220,102 Q220,112 210,112 Z" fill="url(#hbBody)"/>
    <path d="M86,78 L99,57 L118,57 L118,78 Z" fill="#eaf6ff"/>
    <path d="M124,57 L145,57 L162,78 L124,78 Z" fill="#eaf6ff"/>
    <line x1="121" y1="82" x2="121" y2="108" stroke="#0f63b8" stroke-width="2"/>
    <ellipse cx="214" cy="93" rx="4" ry="5" fill="#fff8d6"/>
    <circle cx="74" cy="112" r="20" fill="#1b2733"/>
    <circle cx="74" cy="112" r="8.5" fill="#cfd8e3"/>
    <circle cx="176" cy="112" r="20" fill="#1b2733"/>
    <circle cx="176" cy="112" r="8.5" fill="#cfd8e3"/>
  </g>

  <!-- スパナ バッジ -->
  <g transform="translate(372,96)">
    <circle r="40" fill="#fff"/>
    <circle r="40" fill="none" stroke="#1577d6" stroke-width="2" opacity="0.25"/>
    <g transform="rotate(40)" fill="none" stroke="#1577d6" stroke-width="6" stroke-linecap="round" stroke-linejoin="round">
      <path d="M-14,-6 a9,9 0 1 0 6,12 L14,20 a4,4 0 0 0 6,-6 L-2,-0 a9,9 0 0 0 -12,-6 Z"/>
    </g>
  </g>

  <!-- キラキラ -->
  <path d="M250,70 q2.4,8 10,10 q-7.6,2 -10,10 q-2.4,-8 -10,-10 q7.6,-2 10,-10 Z" fill="#ffd45e"/>
  <path d="M300,46 q1.6,5.6 7,7 q-5.4,1.4 -7,7 q-1.6,-5.6 -7,-7 q5.4,-1.4 7,-7 Z" fill="#ffd45e"/>
  <path d="M150,330 q1.6,5.6 7,7 q-5.4,1.4 -7,7 q-1.6,-5.6 -7,-7 q5.4,-1.4 7,-7 Z" fill="#9ccbf3"/>
</svg>
